<svg width="782" height="879" viewBox="0 0 782 879" xmlns="http://www.w3.org/2000/svg" lang="sat" xml:lang="sat"><rect x="2" y="2" stroke-width="4" rx="6" width="778" height="875" stroke="rgba(56,139,253,0.4)" fill="#010409"/><g font-weight="600" font-size="110pt" font-family="Verdana,Geneva,DejaVu Sans,sans-serif" text-rendering="geometricPrecision"><text x="1166" y="301" lengthAdjust="spacingAndGlyphs" textLength="4025" transform="scale(0.123)" fill="#58a6ff">Prasanta Hembramᱟᱜ ᱜᱤᱴᱦᱚᱵᱽ ᱠᱟᱹᱢᱤᱦᱚᱨᱟᱠᱚ</text><svg x="15" y="15" width="25" height="25" viewBox="0 0 16 16"><path fill="#ffffff" fill-rule="evenodd" d="M8 0C3.58 0 0 3.58 0 8c0 3.54 2.29 6.53 5.47 7.59.4.07.55-.17.55-.38 0-.19-.01-.82-.01-1.49-2.01.37-2.53-.49-2.69-.94-.09-.23-.48-.94-.82-1.13-.28-.15-.68-.52-.01-.53.63-.01 1.08.58 1.23.82.72 1.21 1.87.87 2.33.66.07-.52.28-.87.51-1.07-1.78-.2-3.64-.89-3.64-3.95 0-.87.31-1.59.82-2.15-.08-.2-.36-1.02.08-2.12 0 0 .67-.21 2.2.82.64-.18 1.32-.27 2-.27.68 0 1.36.09 2 .27 1.53-1.04 2.2-.82 2.2-.82.44 1.1.16 1.92.08 2.12.51.56.82 1.27.82 2.15 0 3.07-1.87 3.75-3.65 3.95.29.25.54.73.54 1.48 0 1.07-.01 1.93-.01 2.2 0 .21.15.46.55.38A8.013 8.013 0 0016 8c0-4.42-3.58-8-8-8z"/></svg><svg x="742" y="15" width="25" height="25" viewBox="0 0 16 16"><path fill="#ffffff" fill-rule="evenodd" d="M8 0C3.58 0 0 3.58 0 8c0 3.54 2.29 6.53 5.47 7.59.4.07.55-.17.55-.38 0-.19-.01-.82-.01-1.49-2.01.37-2.53-.49-2.69-.94-.09-.23-.48-.94-.82-1.13-.28-.15-.68-.52-.01-.53.63-.01 1.08.58 1.23.82.72 1.21 1.87.87 2.33.66.07-.52.28-.87.51-1.07-1.78-.2-3.64-.89-3.64-3.95 0-.87.31-1.59.82-2.15-.08-.2-.36-1.02.08-2.12 0 0 .67-.21 2.2.82.64-.18 1.32-.27 2-.27.68 0 1.36.09 2 .27 1.53-1.04 2.2-.82 2.2-.82.44 1.1.16 1.92.08 2.12.51.56.82 1.27.82 2.15 0 3.07-1.87 3.75-3.65 3.95.29.25.54.73.54 1.48 0 1.07-.01 1.93-.01 2.2 0 .21.15.46.55.38A8.013 8.013 0 0016 8c0-4.42-3.58-8-8-8z"/></svg><g transform="translate(0, 60)" fill="#c9d1d9"><g transform="translate(15, 0)"><g transform="scale(0.095)"><text x="0" y="132" textLength="2598" lengthAdjust="spacingAndGlyphs">ᱥᱟᱫᱷᱟᱨᱚᱬ ᱵᱟᱛᱟᱣ ᱟᱨ ᱵᱤᱵᱨᱚᱬ</text></g></g><g transform="translate(15, 21)"><path fill="#1f6feb" fill-rule="evenodd" d="M13.25 0a.75.75 0 01.75.75V2h1.25a.75.75 0 010 1.5H14v1.25a.75.75 0 01-1.5 0V3.5h-1.25a.75.75 0 010-1.5h1.25V.75a.75.75 0 01.75-.75zM5.5 4a2 2 0 100 4 2 2 0 000-4zm2.4 4.548a3.5 3.5 0 10-4.799 0 5.527 5.527 0 00-3.1 4.66.75.75 0 101.498.085A4.01 4.01 0 015.5 9.5a4.01 4.01 0 014.001 3.793.75.75 0 101.498-.086 5.527 5.527 0 00-3.1-4.659z"/><g transform="scale(0.095)"><text lengthAdjust="spacingAndGlyphs" textLength="1331" x="263" y="132">ᱥᱮᱞᱮᱫ ᱥᱮᱨᱢᱟᱸ</text><text lengthAdjust="spacingAndGlyphs" textLength="420" x="4116" y="132">2019</text></g></g><g transform="translate(15, 42)"><path fill="#1f6feb" fill-rule="evenodd" d="M8 .25a.75.75 0 01.673.418l1.882 3.815 4.21.612a.75.75 0 01.416 1.279l-3.046 2.97.719 4.192a.75.75 0 01-1.088.791L8 12.347l-3.766 1.98a.75.75 0 01-1.088-.79l.72-4.194L.818 6.374a.75.75 0 01.416-1.28l4.21-.611L7.327.668A.75.75 0 018 .25zm0 2.445L6.615 5.5a.75.75 0 01-.564.41l-3.097.45 2.24 2.184a.75.75 0 01.216.664l-.528 3.084 2.769-1.456a.75.75 0 01.698 0l2.77 1.456-.53-3.084a.75.75 0 01.216-.664l2.24-2.183-3.096-.45a.75.75 0 01-.564-.41L8 2.694v.001z"/><g transform="scale(0.095)"><text lengthAdjust="spacingAndGlyphs" textLength="3516" x="263" y="132">ᱡᱷᱚᱛᱚ ᱠᱷᱚᱱ ᱰᱷᱮᱨ ᱪᱤᱱᱦᱟᱹ ᱦᱟᱜ ᱜᱩᱫᱟᱹᱢ</text><text lengthAdjust="spacingAndGlyphs" textLength="1336" x="4116" y="132">Santali-tessdata</text></g></g><g transform="translate(15, 63)"><path fill="#1f6feb" fill-rule="evenodd" d="M5 3.25a.75.75 0 11-1.5 0 .75.75 0 011.5 0zm0 2.122a2.25 2.25 0 10-1.5 0v.878A2.25 2.25 0 005.75 8.5h1.5v2.128a2.251 2.251 0 101.5 0V8.5h1.5a2.25 2.25 0 002.25-2.25v-.878a2.25 2.25 0 10-1.5 0v.878a.75.75 0 01-.75.75h-4.5A.75.75 0 015 6.25v-.878zm3.75 7.378a.75.75 0 11-1.5 0 .75.75 0 011.5 0zm3-8.75a.75.75 0 100-1.5.75.75 0 000 1.5z"/><g transform="scale(0.095)"><text lengthAdjust="spacingAndGlyphs" textLength="2365" x="263" y="132">ᱡᱟᱹᱥᱛᱤ ᱱᱚᱠᱚᱞ ᱠᱟᱱ ᱜᱚᱫᱟᱢ</text><text lengthAdjust="spacingAndGlyphs" textLength="3430" x="4116" y="132">Translation-work-list-for-Santali-language</text></g></g><g transform="translate(15, 84)"><path fill="#1f6feb" fill-rule="evenodd" d="M5.5 3.5a2 2 0 100 4 2 2 0 000-4zM2 5.5a3.5 3.5 0 115.898 2.549 5.507 5.507 0 013.034 4.084.75.75 0 11-1.482.235 4.001 4.001 0 00-7.9 0 .75.75 0 01-1.482-.236A5.507 5.507 0 013.102 8.05 3.49 3.49 0 012 5.5zM11 4a.75.75 0 100 1.5 1.5 1.5 0 01.666 2.844.75.75 0 00-.416.672v.352a.75.75 0 00.574.73c1.2.289 2.162 1.2 2.522 2.372a.75.75 0 101.434-.44 5.01 5.01 0 00-2.56-3.012A3 3 0 0011 4z"/><g transform="scale(0.095)"><text lengthAdjust="spacingAndGlyphs" textLength="982" x="263" y="132">ᱯᱟᱧᱡᱟ ᱠᱩᱜ</text><text lengthAdjust="spacingAndGlyphs" textLength="105" x="4116" y="132">6</text></g></g><g transform="translate(15, 105)"><path fill="#1f6feb" fill-rule="evenodd" d="M5.5 3.5a2 2 0 100 4 2 2 0 000-4zM2 5.5a3.5 3.5 0 115.898 2.549 5.507 5.507 0 013.034 4.084.75.75 0 11-1.482.235 4.001 4.001 0 00-7.9 0 .75.75 0 01-1.482-.236A5.507 5.507 0 013.102 8.05 3.49 3.49 0 012 5.5zM11 4a.75.75 0 100 1.5 1.5 1.5 0 01.666 2.844.75.75 0 00-.416.672v.352a.75.75 0 00.574.73c1.2.289 2.162 1.2 2.522 2.372a.75.75 0 101.434-.44 5.01 5.01 0 00-2.56-3.012A3 3 0 0011 4z"/><g transform="scale(0.095)"><text lengthAdjust="spacingAndGlyphs" textLength="1098" x="263" y="132">ᱯᱟᱧᱡᱟ ᱮᱫᱟᱢ</text><text lengthAdjust="spacingAndGlyphs" textLength="105" x="4116" y="132">9</text></g></g></g><g transform="translate(0, 207)" fill="#c9d1d9"><g transform="translate(15, 0)"><g transform="scale(0.095)"><text x="0" y="132" textLength="581" lengthAdjust="spacingAndGlyphs">ᱜᱩᱫᱟᱢ</text><text x="4116" y="132" textLength="1267" lengthAdjust="spacingAndGlyphs">ᱵᱤᱱ ᱯᱷᱚᱨᱠ ᱠᱚ</text><text x="6168" y="132" textLength="349" lengthAdjust="spacingAndGlyphs">ᱢᱩᱴ</text></g></g><g transform="translate(15, 21)"><path fill="#1f6feb" fill-rule="evenodd" d="M2 2.5A2.5 2.5 0 014.5 0h8.75a.75.75 0 01.75.75v12.5a.75.75 0 01-.75.75h-2.5a.75.75 0 110-1.5h1.75v-2h-8a1 1 0 00-.714 1.7.75.75 0 01-1.072 1.05A2.495 2.495 0 012 11.5v-9zm10.5-1V9h-8c-.356 0-.694.074-1 .208V2.5a1 1 0 011-1h8zM5 12.25v3.25a.25.25 0 00.4.2l1.45-1.087a.25.25 0 01.3 0L8.6 15.7a.25.25 0 00.4-.2v-3.25a.25.25 0 00-.25-.25h-3.5a.25.25 0 00-.25.25z"/><g transform="scale(0.095)"><text lengthAdjust="spacingAndGlyphs" textLength="1383" x="263" y="132">ᱤᱧᱟᱜ ᱜᱩᱫᱟᱢ ᱠᱚ</text><text lengthAdjust="spacingAndGlyphs" textLength="210" x="4116" y="132">17</text><text lengthAdjust="spacingAndGlyphs" textLength="210" x="6168" y="132">83</text></g></g><g transform="translate(15, 42)"><path fill="#1f6feb" fill-rule="evenodd" d="M8 .25a.75.75 0 01.673.418l1.882 3.815 4.21.612a.75.75 0 01.416 1.279l-3.046 2.97.719 4.192a.75.75 0 01-1.088.791L8 12.347l-3.766 1.98a.75.75 0 01-1.088-.79l.72-4.194L.818 6.374a.75.75 0 01.416-1.28l4.21-.611L7.327.668A.75.75 0 018 .25zm0 2.445L6.615 5.5a.75.75 0 01-.564.41l-3.097.45 2.24 2.184a.75.75 0 01.216.664l-.528 3.084 2.769-1.456a.75.75 0 01.698 0l2.77 1.456-.53-3.084a.75.75 0 01.216-.664l2.24-2.183-3.096-.45a.75.75 0 01-.564-.41L8 2.694v.001z"/><g transform="scale(0.095)"><text lengthAdjust="spacingAndGlyphs" textLength="1162" x="263" y="132">ᱪᱤᱱᱦᱟᱹᱤᱭᱟᱹ</text><text lengthAdjust="spacingAndGlyphs" textLength="105" x="4116" y="132">5</text><text lengthAdjust="spacingAndGlyphs" textLength="210" x="6168" y="132">10</text></g></g><g transform="translate(15, 63)"><path fill="#1f6feb" fill-rule="evenodd" d="M5 3.25a.75.75 0 11-1.5 0 .75.75 0 011.5 0zm0 2.122a2.25 2.25 0 10-1.5 0v.878A2.25 2.25 0 005.75 8.5h1.5v2.128a2.251 2.251 0 101.5 0V8.5h1.5a2.25 2.25 0 002.25-2.25v-.878a2.25 2.25 0 10-1.5 0v.878a.75.75 0 01-.75.75h-4.5A.75.75 0 015 6.25v-.878zm3.75 7.378a.75.75 0 11-1.5 0 .75.75 0 011.5 0zm3-8.75a.75.75 0 100-1.5.75.75 0 000 1.5z"/><g transform="scale(0.095)"><text lengthAdjust="spacingAndGlyphs" textLength="1046" x="263" y="132">ᱱᱚᱠᱚᱞᱤᱭᱟᱹ</text><text lengthAdjust="spacingAndGlyphs" textLength="105" x="4116" y="132">6</text><text lengthAdjust="spacingAndGlyphs" textLength="105" x="6168" y="132">9</text></g></g></g><g transform="translate(0, 312)" fill="#c9d1d9"><g transform="translate(15, 0)"><g transform="scale(0.095)"><text x="0" y="132" textLength="1162" lengthAdjust="spacingAndGlyphs">ᱮᱱᱮᱢᱤᱭᱟᱹᱠᱚ</text><text x="4116" y="132" textLength="1563" lengthAdjust="spacingAndGlyphs">ᱪᱟᱞᱟᱣᱮᱱ ᱥᱮᱨᱢᱟᱸ</text><text x="6168" y="132" textLength="349" lengthAdjust="spacingAndGlyphs">ᱢᱩᱴ</text></g></g><g transform="translate(15, 21)"><path fill="#1f6feb" fill-rule="evenodd" d="M10.5 7.75a2.5 2.5 0 11-5 0 2.5 2.5 0 015 0zm1.43.75a4.002 4.002 0 01-7.86 0H.75a.75.75 0 110-1.5h3.32a4.001 4.001 0 017.86 0h3.32a.75.75 0 110 1.5h-3.32z"/><g transform="scale(0.095)"><text lengthAdjust="spacingAndGlyphs" textLength="813" x="263" y="132">ᱰᱟᱞᱟᱣᱠᱚ</text><text lengthAdjust="spacingAndGlyphs" textLength="315" x="4116" y="132">188</text><text lengthAdjust="spacingAndGlyphs" textLength="315" x="6168" y="132">434</text></g></g><g transform="translate(15, 42)"><path fill="#1f6feb" d="M8 9.5a1.5 1.5 0 100-3 1.5 1.5 0 000 3z"/><path fill="#1f6feb" fill-rule="evenodd" d="M8 0a8 8 0 100 16A8 8 0 008 0zM1.5 8a6.5 6.5 0 1113 0 6.5 6.5 0 01-13 0z"/><g transform="scale(0.095)"><text lengthAdjust="spacingAndGlyphs" textLength="930" x="263" y="132">ᱯᱚᱞᱚᱡᱽᱠᱚ</text><text lengthAdjust="spacingAndGlyphs" textLength="210" x="4116" y="132">38</text><text lengthAdjust="spacingAndGlyphs" textLength="210" x="6168" y="132">52</text></g></g><g transform="translate(15, 63)"><path fill="#1f6feb" fill-rule="evenodd" d="M7.177 3.073L9.573.677A.25.25 0 0110 .854v4.792a.25.25 0 01-.427.177L7.177 3.427a.25.25 0 010-.354zM3.75 2.5a.75.75 0 100 1.5.75.75 0 000-1.5zm-2.25.75a2.25 2.25 0 113 2.122v5.256a2.251 2.251 0 11-1.5 0V5.372A2.25 2.25 0 011.5 3.25zM11 2.5h-1V4h1a1 1 0 011 1v5.628a2.251 2.251 0 101.5 0V5A2.5 2.5 0 0011 2.5zm1 10.25a.75.75 0 111.5 0 .75.75 0 01-1.5 0zM3.75 12a.75.75 0 100 1.5.75.75 0 000-1.5z"/><g transform="scale(0.095)"><text lengthAdjust="spacingAndGlyphs" textLength="1098" x="263" y="132">ᱚᱨ ᱱᱮᱦᱚᱨᱠᱚ</text><text lengthAdjust="spacingAndGlyphs" textLength="210" x="4116" y="132">30</text><text lengthAdjust="spacingAndGlyphs" textLength="210" x="6168" y="132">61</text></g></g><g transform="translate(15, 84)"><path fill="#1f6feb" fill-rule="evenodd" d="M1.5 2.75a.25.25 0 01.25-.25h8.5a.25.25 0 01.25.25v5.5a.25.25 0 01-.25.25h-3.5a.75.75 0 00-.53.22L3.5 11.44V9.25a.75.75 0 00-.75-.75h-1a.25.25 0 01-.25-.25v-5.5zM1.75 1A1.75 1.75 0 000 2.75v5.5C0 9.216.784 10 1.75 10H2v1.543a1.457 1.457 0 002.487 1.03L7.061 10h3.189A1.75 1.75 0 0012 8.25v-5.5A1.75 1.75 0 0010.25 1h-8.5zM14.5 4.75a.25.25 0 00-.25-.25h-.5a.75.75 0 110-1.5h.5c.966 0 1.75.784 1.75 1.75v5.5A1.75 1.75 0 0114.25 12H14v1.543a1.457 1.457 0 01-2.487 1.03L9.22 12.28a.75.75 0 111.06-1.06l2.22 2.22v-2.19a.75.75 0 01.75-.75h1a.25.25 0 00.25-.25v-5.5z"/><g transform="scale(0.095)"><text lengthAdjust="spacingAndGlyphs" textLength="2249" x="263" y="132">ᱚᱨ ᱱᱮᱦᱚᱨ ᱧᱮᱞᱯᱚᱨᱚᱠᱷ ᱠᱚ</text><text lengthAdjust="spacingAndGlyphs" textLength="105" x="4116" y="132">1</text><text lengthAdjust="spacingAndGlyphs" textLength="105" x="6168" y="132">2</text></g></g><g transform="translate(15, 105)"><path fill="#1f6feb" fill-rule="evenodd" d="M1 2.5A2.5 2.5 0 013.5 0h8.75a.75.75 0 01.75.75v3.5a.75.75 0 01-1.5 0V1.5h-8a1 1 0 00-1 1v6.708A2.492 2.492 0 013.5 9h3.25a.75.75 0 010 1.5H3.5a1 1 0 100 2h5.75a.75.75 0 010 1.5H3.5A2.5 2.5 0 011 11.5v-9zm13.23 7.79a.75.75 0 001.06-1.06l-2.505-2.505a.75.75 0 00-1.06 0L9.22 9.229a.75.75 0 001.06 1.061l1.225-1.224v6.184a.75.75 0 001.5 0V9.066l1.224 1.224z"/><g transform="scale(0.095)"><text lengthAdjust="spacingAndGlyphs" textLength="465" x="263" y="132">ᱮᱱᱮᱢ</text><text lengthAdjust="spacingAndGlyphs" textLength="210" x="4116" y="132">39</text></g></g><g transform="translate(15, 126)"><path fill="#1f6feb" fill-rule="evenodd" d="M4 4v2h-.25A1.75 1.75 0 002 7.75v5.5c0 .966.784 1.75 1.75 1.75h8.5A1.75 1.75 0 0014 13.25v-5.5A1.75 1.75 0 0012.25 6H12V4a4 4 0 10-8 0zm6.5 2V4a2.5 2.5 0 00-5 0v2h5zM12 7.5h.25a.25.25 0 01.25.25v5.5a.25.25 0 01-.25.25h-8.5a.25.25 0 01-.25-.25v-5.5a.25.25 0 01.25-.25H12z"/><g transform="scale(0.095)"><text lengthAdjust="spacingAndGlyphs" textLength="1964" x="263" y="132">ᱱᱤᱡᱚᱨᱟᱜ ᱩᱠᱩ ᱮᱱᱮᱢᱠᱚ</text><text lengthAdjust="spacingAndGlyphs" textLength="105" x="4116" y="132">0</text><text lengthAdjust="spacingAndGlyphs" textLength="210" x="6168" y="132">36</text></g></g></g><g transform="translate(0, 480)" fill="#c9d1d9"><g transform="translate(15, 0)"><g transform="scale(0.095)"><text x="0" y="132" textLength="3633" lengthAdjust="spacingAndGlyphs">ᱥᱟᱱᱟᱢ ᱜᱩᱫᱟᱢ ᱨᱮ ᱯᱟᱹᱨᱥᱤ ᱠᱚᱣᱟᱜ ᱯᱟᱥᱱᱟᱣ</text></g></g><g transform="translate(406, 21)"><circle cx="176" cy="176" r="176" fill="#ffffff"/></g><g transform="translate(407, 22)"><path fill-rule="evenodd" fill="#0060ac" d="M 0.0,175.00000000000003 A 175 175 0 0 1 341.819910172224 122.12167201838635 L 175,175 Z"/><path fill-rule="evenodd" fill="#e34c26" d="M 341.819910172224,122.12167201838635 A 175 175 0 0 1 95.96968202472402 331.1384284560555 L 175,175 Z"/><path fill-rule="evenodd" fill="#f1e05a" d="M 95.96968202472402,331.1384284560555 A 175 175 0 0 1 5.466912106716762 218.3996786781688 L 175,175 Z"/><path fill-rule="evenodd" fill="#563d7c" d="M 5.466912106716762,218.3996786781688 A 175 175 0 0 1 0.4265524945047048 187.21111895143403 L 175,175 Z"/><path fill-rule="evenodd" fill="#959da5" d="M 0.4265524945047048,187.21111895143403 A 175 175 0 0 1 0.0 175.00000000000006 L 175,175 Z"/></g><g transform="translate(15, 21)"><rect x="0.5" y="0.5" rx="2" width="15" height="15" fill="#0060ac" stroke-width="1" stroke="#ffffff"/><text transform="scale(0.095)" x="263" y="132" textLength="1029" lengthAdjust="spacingAndGlyphs">XML 45.11%</text></g><g transform="translate(15, 42)"><rect x="0.5" y="0.5" rx="2" width="15" height="15" fill="#e34c26" stroke-width="1" stroke="#ffffff"/><text transform="scale(0.095)" x="263" y="132" textLength="1142" lengthAdjust="spacingAndGlyphs">HTML 37.34%</text></g><g transform="translate(15, 63)"><rect x="0.5" y="0.5" rx="2" width="15" height="15" fill="#f1e05a" stroke-width="1" stroke="#ffffff"/><text transform="scale(0.095)" x="263" y="132" textLength="1516" lengthAdjust="spacingAndGlyphs">JavaScript 13.55%</text></g><g transform="translate(15, 84)"><rect x="0.5" y="0.5" rx="2" width="15" height="15" fill="#563d7c" stroke-width="1" stroke="#ffffff"/><text transform="scale(0.095)" x="263" y="132" textLength="903" lengthAdjust="spacingAndGlyphs">CSS 2.88%</text></g><g transform="translate(15, 105)"><rect x="0.5" y="0.5" rx="2" width="15" height="15" fill="#959da5" stroke-width="1" stroke="#ffffff"/><text transform="scale(0.095)" x="263" y="132" textLength="1047" lengthAdjust="spacingAndGlyphs">Other 1.11%</text></g></g></g></svg>